<svg width="32" height="32" viewBox="0 0 32 32" fill="none" xmlns="http://www.w3.org/2000/svg">
<path d="M16.0156 20.3335C16.6133 20.3335 17.1055 19.8413 17.1055 19.2554V7.46631L17.0234 5.73193L17.7383 6.5874L19.3789 8.3335C19.5664 8.54443 19.8359 8.6499 20.1055 8.6499C20.6445 8.6499 21.0898 8.26318 21.0898 7.7124C21.0898 7.41943 20.9727 7.2085 20.7734 7.00928L16.8477 3.22412C16.5664 2.94287 16.2969 2.84912 16.0156 2.84912C15.7227 2.84912 15.4648 2.94287 15.1836 3.22412L11.2461 7.00928C11.0469 7.2085 10.9297 7.41943 10.9297 7.7124C10.9297 8.26318 11.3633 8.6499 11.9023 8.6499C12.1719 8.6499 12.4531 8.54443 12.6406 8.3335L14.2812 6.5874L15.0078 5.72021L14.9141 7.46631V19.2554C14.9141 19.8413 15.4062 20.3335 16.0156 20.3335ZM9.25391 29.6968H22.7539C25.2969 29.6968 26.6094 28.3843 26.6094 25.8765V14.3569C26.6094 11.8491 25.2969 10.5366 22.7539 10.5366H19.5898V12.8687H22.6016C23.668 12.8687 24.2773 13.4312 24.2773 14.5562V25.6655C24.2773 26.7905 23.668 27.353 22.6016 27.353H9.40625C8.32812 27.353 7.73047 26.7905 7.73047 25.6655V14.5562C7.73047 13.4312 8.32812 12.8687 9.40625 12.8687H12.4531V10.5366H9.25391C6.72266 10.5366 5.39844 11.8374 5.39844 14.3569V25.8765C5.39844 28.3843 6.72266 29.6968 9.25391 29.6968Z" fill="#6465F9"/>
</svg>
