<svg width="32" height="32" viewBox="0 0 32 32" fill="none" xmlns="http://www.w3.org/2000/svg">
<path fill-rule="evenodd" clip-rule="evenodd" d="M29.2413 19.72C33.4753 21.1498 32.7264 28 27.7446 28H7.40055C-0.874531 28 -2.62664 17.2389 4.27178 14.2684C3.7954 10.6454 4.97121 7.23898 8.03841 5.04184C14.3313 0.536803 23.3149 3.7439 23.9558 12.1307C27.3701 13.0037 29.6107 16.2329 29.2413 19.72ZM16.3751 26.108V19.2658H18.755C19.5814 19.2658 20.0511 18.3203 19.5519 17.6617L15.9114 12.8597C15.5113 12.3318 14.7177 12.3319 14.3176 12.8598L10.6778 17.6618C10.1786 18.3204 10.6484 19.2658 11.4748 19.2658H13.8549V26.108H7.40156C0.858401 26.108 -0.443569 17.2338 6.4599 15.5764C4.74816 8.13716 11.0975 2.60203 17.8466 5.69937C21.2226 7.24905 22.1451 10.3293 22.0886 13.77C26.4335 14.1315 28.221 17.3194 26.8786 21.3572C31.7212 21.3572 30.504 26.109 27.7456 26.109H18.4643L16.3751 26.108Z" fill="black"/>
</svg>
