<svg width="24" height="24" viewBox="0 0 24 24" fill="none" xmlns="http://www.w3.org/2000/svg">
<path d="M5.03421 11.117C4.08842 11.355 3.26208 11.9302 2.71046 12.7344C2.15883 13.5387 1.91989 14.5168 2.03851 15.4848C2.15714 16.4528 2.62517 17.3442 3.35467 17.9915C4.08417 18.6388 5.02494 18.9974 6.00021 19H17.0002C17.7062 18.9995 18.4042 18.8495 19.0481 18.5599C19.692 18.2702 20.2672 17.8475 20.7359 17.3195C21.2047 16.7915 21.5563 16.1702 21.7676 15.4965C21.9789 14.8229 22.0452 14.1121 21.962 13.4109C21.8788 12.7098 21.6481 12.0343 21.285 11.4287C20.9219 10.8232 20.4347 10.3014 19.8554 9.89779C19.2762 9.49412 18.618 9.21772 17.9242 9.08676C17.2304 8.9558 16.5168 8.97327 15.8302 9.138L14.5002 9.5" stroke="black" stroke-width="2" stroke-linecap="round" stroke-linejoin="round"/>
<path d="M15.8302 9.13821C15.4884 7.78478 14.6447 6.61195 13.4703 5.85746C12.2958 5.10298 10.8784 4.8233 9.50542 5.07511C8.1324 5.32692 6.9065 6.09139 6.07622 7.21354C5.24595 8.3357 4.87342 9.73157 5.03416 11.1182C5.03416 11.1182 5.18716 12.0002 5.50016 12.5002" stroke="black" stroke-width="2" stroke-linecap="round" stroke-linejoin="round"/>
</svg>
