<svg width="24" height="24" viewBox="0 0 24 24" fill="none" xmlns="http://www.w3.org/2000/svg">
<path d="M19.33 6.6938L19.75 5.3168C19.8276 5.06312 20.0027 4.85065 20.237 4.72612C20.4712 4.6016 20.7453 4.57522 20.999 4.6528C21.2527 4.73037 21.4651 4.90555 21.5897 5.13978C21.7142 5.37401 21.7406 5.64812 21.663 5.9018L20.493 9.7268C20.4154 9.98028 20.2404 10.1926 20.0064 10.3171C19.7724 10.4416 19.4985 10.4681 19.245 10.3908L15.42 9.2208C15.2917 9.1847 15.172 9.12335 15.0678 9.04034C14.9636 8.95733 14.8771 8.85434 14.8132 8.73741C14.7494 8.62048 14.7096 8.49198 14.6961 8.35945C14.6826 8.22691 14.6957 8.09302 14.7347 7.96563C14.7737 7.83824 14.8377 7.71992 14.923 7.61763C15.0084 7.51533 15.1133 7.43111 15.2316 7.36993C15.35 7.30874 15.4793 7.27181 15.6121 7.26131C15.7449 7.25082 15.8785 7.26696 16.005 7.3088L17.677 7.8198C16.9378 6.69869 15.9068 5.80048 14.695 5.22188C13.4832 4.64329 12.1366 4.40624 10.8 4.53627C9.4635 4.6663 8.18777 5.15849 7.11023 5.95981C6.03268 6.76114 5.19416 7.84124 4.68498 9.0838L4.42498 9.7168C4.37769 9.84175 4.30584 9.95596 4.21368 10.0527C4.12152 10.1494 4.01091 10.2267 3.88839 10.28C3.76586 10.3332 3.63391 10.3614 3.50031 10.3628C3.36672 10.3642 3.23419 10.3389 3.11056 10.2882C2.98694 10.2376 2.87471 10.1626 2.78052 10.0679C2.68633 9.97314 2.61208 9.86048 2.56215 9.73656C2.51222 9.61263 2.48764 9.47996 2.48984 9.34638C2.49204 9.21279 2.52099 9.08101 2.57498 8.9588L2.83498 8.3258C3.48121 6.74908 4.5447 5.37815 5.91125 4.36022C7.27781 3.34229 8.89583 2.7158 10.5916 2.54803C12.2873 2.38025 13.9967 2.67753 15.5362 3.40793C17.0758 4.13833 18.3873 5.27428 19.33 6.6938V6.6938ZM3.80798 17.3068L3.48098 18.6178C3.45172 18.7478 3.39677 18.8707 3.31935 18.9792C3.24193 19.0876 3.14362 19.1795 3.03017 19.2495C2.91673 19.3194 2.79045 19.366 2.65876 19.3864C2.52706 19.4069 2.39261 19.4008 2.26331 19.3685C2.134 19.3363 2.01245 19.2785 1.90579 19.1986C1.79913 19.1187 1.70952 19.0182 1.64222 18.9032C1.57493 18.7882 1.53131 18.6609 1.51392 18.5287C1.49653 18.3966 1.50573 18.2623 1.54098 18.1338L2.50798 14.2538C2.5406 14.1217 2.59984 13.9976 2.68208 13.8892C2.76431 13.7808 2.86781 13.6903 2.98623 13.6233C3.10465 13.5563 3.23551 13.5141 3.37079 13.4994C3.50607 13.4847 3.64292 13.4978 3.77298 13.5378L7.60098 14.4918C7.85837 14.556 8.07972 14.7198 8.21634 14.9472C8.35296 15.1746 8.39366 15.4469 8.32948 15.7043C8.26529 15.9617 8.10149 16.183 7.8741 16.3197C7.64671 16.4563 7.37437 16.497 7.11698 16.4328L5.33098 15.9878C6.09449 17.1566 7.17373 18.0851 8.44352 18.6654C9.7133 19.2458 11.1216 19.4542 12.5051 19.2666C13.8885 19.079 15.1904 18.5031 16.2598 17.6056C17.3292 16.7081 18.1223 15.5258 18.547 14.1958C18.5869 14.0706 18.6511 13.9546 18.7359 13.8542C18.8206 13.7539 18.9243 13.6712 19.0411 13.611C19.1578 13.5507 19.2852 13.514 19.4161 13.503C19.547 13.492 19.6788 13.5069 19.804 13.5468C19.9291 13.5867 20.0452 13.6509 20.1455 13.7357C20.2459 13.8205 20.3285 13.9242 20.3888 14.0409C20.4491 14.1576 20.4858 14.2851 20.4968 14.416C20.5078 14.5469 20.4929 14.6786 20.453 14.8038C20.0367 16.1098 19.3392 17.3086 18.4097 18.316C17.4802 19.3235 16.3413 20.1149 15.073 20.6348C13.0968 21.4444 10.9036 21.5559 8.85553 20.9508C6.80745 20.3457 5.02694 19.0603 3.80798 17.3068V17.3068Z" fill="black"/>
</svg>
