<svg width="77" height="49" viewBox="0 0 77 49" fill="none" xmlns="http://www.w3.org/2000/svg">
<path d="M23.1194 44H24.2132V40.8799H27.8313V44H28.9202V36.9541H27.8313V39.9326H24.2132V36.9541H23.1194V44ZM30.8775 37.75C31.2388 37.75 31.5415 37.4521 31.5415 37.0908C31.5415 36.7246 31.2388 36.4268 30.8775 36.4268C30.5112 36.4268 30.2134 36.7246 30.2134 37.0908C30.2134 37.4521 30.5112 37.75 30.8775 37.75ZM30.3452 44H31.3999V38.6973H30.3452V44ZM34.6316 44.1025C35.8914 44.1025 36.8289 43.4336 36.8289 42.4521V42.4424C36.8289 41.6758 36.3406 41.2412 35.3201 41.002L34.4802 40.8115C33.8845 40.6699 33.6404 40.4648 33.6404 40.1328V40.123C33.6404 39.6982 34.0603 39.4102 34.6414 39.4102C35.2371 39.4102 35.613 39.6885 35.7156 40.0596V40.0693H36.7263V40.0645C36.6336 39.2002 35.8572 38.5947 34.6462 38.5947C33.4451 38.5947 32.5857 39.2588 32.5857 40.1816V40.1865C32.5857 40.9629 33.0496 41.417 34.0505 41.6465L34.8953 41.8418C35.5105 41.9834 35.7595 42.208 35.7595 42.54V42.5498C35.7595 42.9844 35.3054 43.2822 34.6511 43.2822C34.0212 43.2822 33.6355 43.0137 33.5037 42.6133L33.4988 42.6084H32.4392V42.6133C32.5418 43.502 33.3523 44.1025 34.6316 44.1025ZM39.8164 44.0342C40.0215 44.0342 40.2168 44.0098 40.3877 43.9805V43.1357C40.2412 43.1504 40.1484 43.1553 39.9873 43.1553C39.4648 43.1553 39.25 42.9209 39.25 42.3496V39.5322H40.3877V38.6973H39.25V37.3594H38.1709V38.6973H37.3408V39.5322H38.1709V42.6035C38.1709 43.624 38.6494 44.0342 39.8164 44.0342ZM43.5705 44.1025C45.1233 44.1025 46.0754 43.0625 46.0754 41.3535V41.3438C46.0754 39.6348 45.1184 38.5947 43.5705 38.5947C42.0178 38.5947 41.0608 39.6396 41.0608 41.3438V41.3535C41.0608 43.0625 42.0129 44.1025 43.5705 44.1025ZM43.5705 43.2188C42.6575 43.2188 42.1448 42.5303 42.1448 41.3535V41.3438C42.1448 40.167 42.6575 39.4785 43.5705 39.4785C44.4788 39.4785 44.9963 40.167 44.9963 41.3438V41.3535C44.9963 42.5254 44.4788 43.2188 43.5705 43.2188ZM47.1001 44H48.1596V40.8311C48.1596 40.0645 48.7114 39.5664 49.522 39.5664C49.7221 39.5664 49.9028 39.5908 50.0932 39.6299V38.6533C49.9858 38.6289 49.8003 38.6045 49.6294 38.6045C48.9214 38.6045 48.4282 38.9365 48.2378 39.498H48.1596V38.6973H47.1001V44ZM51.4109 45.8652C52.4851 45.8652 53.0222 45.4697 53.4714 44.2051L55.4441 38.6973H54.3308L53.0075 42.9355H52.9148L51.5866 38.6973H50.4441L52.3679 44.0049L52.2898 44.2783C52.1335 44.8154 51.8357 45.0254 51.3425 45.0254C51.2204 45.0254 51.0886 45.0205 50.9861 45.0059V45.8408C51.1228 45.8555 51.279 45.8652 51.4109 45.8652Z" fill="#C5C4FE"/>
<g clip-path="url(#clip0)">
<path d="M42.5363 21.3636C42.3652 21.3656 42.1963 21.3244 42.0454 21.2436L37.6818 19.0618C37.5019 18.9711 37.3506 18.8324 37.2447 18.661C37.1388 18.4897 37.0824 18.2923 37.0818 18.0909V12.6363C37.0818 12.347 37.1967 12.0695 37.4013 11.8649C37.6059 11.6603 37.8834 11.5454 38.1727 11.5454C38.462 11.5454 38.7395 11.6603 38.9441 11.8649C39.1487 12.0695 39.2636 12.347 39.2636 12.6363V17.4145L43.0272 19.3018C43.2842 19.4326 43.4789 19.6597 43.5688 19.9336C43.6588 20.2076 43.6366 20.506 43.5072 20.7636C43.4166 20.9435 43.2779 21.0948 43.1065 21.2007C42.9351 21.3066 42.7378 21.363 42.5363 21.3636V21.3636Z" fill="#C5C4FE"/>
<path d="M39.2575 5C37.4033 4.99893 35.5761 5.45431 33.93 6.32771C32.284 7.20111 30.8676 8.46689 29.8002 10.0182L28.734 9.09091C28.5794 8.9625 28.3928 8.88093 28.1953 8.85546C27.9977 8.82998 27.7971 8.86161 27.6163 8.94677C27.4354 9.03192 27.2814 9.1672 27.1718 9.33728C27.0622 9.50736 27.0013 9.70544 26.9961 9.90909V13.7273C26.9961 14.0166 27.1084 14.2941 27.3084 14.4987C27.5083 14.7032 27.7795 14.8182 28.0623 14.8182H32.3271C32.5436 14.8179 32.7548 14.7502 32.9327 14.6241C33.1106 14.498 33.2468 14.3194 33.3232 14.1122C33.3996 13.905 33.4125 13.6789 33.3603 13.464C33.3081 13.2491 33.1931 13.0556 33.0308 12.9091L31.4102 11.4582C32.2761 10.1425 33.4445 9.06456 34.8127 8.31893C36.181 7.5733 37.7072 7.18283 39.2575 7.18182C41.0169 7.18077 42.7428 7.67469 44.2464 8.60958C45.75 9.54448 46.9735 10.8844 47.783 12.4827C48.5925 14.0811 48.9569 15.8764 48.8364 17.6725C48.7159 19.4685 48.1151 21.196 47.0997 22.6662C46.0843 24.1364 44.6934 25.2926 43.079 26.0085C41.4646 26.7244 39.689 26.9723 37.9462 26.7253C36.2033 26.4782 34.5605 25.7456 33.1971 24.6076C31.8338 23.4696 30.8025 21.97 30.216 20.2727C30.1761 20.1292 30.1077 19.9957 30.0153 19.8803C29.9229 19.7649 29.8083 19.6701 29.6787 19.6018C29.549 19.5336 29.407 19.4932 29.2615 19.4833C29.116 19.4734 28.9701 19.4941 28.8327 19.5442C28.6954 19.5943 28.5695 19.6727 28.463 19.7745C28.3564 19.8763 28.2714 19.9994 28.2131 20.1362C28.1549 20.273 28.1247 20.4206 28.1245 20.5698C28.1242 20.719 28.1538 20.8666 28.2116 21.0036C28.929 23.0778 30.1901 24.9103 31.8568 26.3006C33.5235 27.691 35.5317 28.5857 37.6619 28.887C39.7921 29.1882 41.9622 28.8845 43.9351 28.0089C45.9079 27.1333 47.6075 25.7196 48.848 23.9223C50.0885 22.125 50.8222 20.0134 50.9688 17.8182C51.1154 15.6231 50.6694 13.4289 49.6794 11.4757C48.6894 9.52242 47.1936 7.88526 45.3555 6.74318C43.5175 5.60109 41.4079 4.99806 39.2575 5Z" fill="#C5C4FE"/>
</g>
<defs>
<clipPath id="clip0">
<rect width="24" height="24" fill="white" transform="translate(26.9961 5)"/>
</clipPath>
</defs>
</svg>
