<svg width="77" height="49" viewBox="0 0 77 49" fill="none" xmlns="http://www.w3.org/2000/svg">
<path d="M22.505 44.1709C24.1457 44.1709 25.1955 43.3311 25.1955 41.9834V41.9785C25.1955 40.9336 24.59 40.3379 23.1105 40.0205L22.3439 39.8496C21.4308 39.6543 21.0597 39.3125 21.0597 38.79V38.7852C21.0597 38.1211 21.6701 37.7354 22.4953 37.7354C23.3498 37.7305 23.9015 38.1504 23.9943 38.7266L24.0041 38.79H25.0636L25.0588 38.7217C24.9806 37.6279 24.0041 36.7832 22.5099 36.7832C21.0158 36.7832 19.9611 37.623 19.9562 38.8389V38.8438C19.9562 39.8838 20.5714 40.5479 22.0021 40.8506L22.7736 41.0166C23.7062 41.2168 24.0871 41.5684 24.0871 42.1104V42.1152C24.0871 42.7695 23.4474 43.2188 22.549 43.2188C21.6066 43.2188 20.9279 42.8086 20.8693 42.1689L20.8644 42.1152H19.7902L19.7951 42.1787C19.8927 43.3652 20.9132 44.1709 22.505 44.1709ZM28.5004 44.1025C29.8578 44.1025 30.5902 43.3213 30.766 42.623L30.7758 42.5791L29.7553 42.584L29.7357 42.623C29.6088 42.8965 29.2035 43.2334 28.5248 43.2334C27.6508 43.2334 27.0941 42.6426 27.0746 41.627H30.8344V41.2559C30.8344 39.6641 29.9262 38.5947 28.4467 38.5947C26.9672 38.5947 26.0102 39.7031 26.0102 41.3584V41.3633C26.0102 43.043 26.9477 44.1025 28.5004 44.1025ZM28.4516 39.4639C29.1693 39.4639 29.7016 39.9229 29.7846 40.8701H27.0893C27.182 39.957 27.7289 39.4639 28.4516 39.4639ZM33.8561 44.0342C34.0612 44.0342 34.2565 44.0098 34.4274 43.9805V43.1357C34.2809 43.1504 34.1881 43.1553 34.027 43.1553C33.5045 43.1553 33.2897 42.9209 33.2897 42.3496V39.5322H34.4274V38.6973H33.2897V37.3594H32.2106V38.6973H31.3805V39.5322H32.2106V42.6035C32.2106 43.624 32.6891 44.0342 33.8561 44.0342ZM37.4442 44.0342C37.6493 44.0342 37.8446 44.0098 38.0155 43.9805V43.1357C37.869 43.1504 37.7762 43.1553 37.6151 43.1553C37.0927 43.1553 36.8778 42.9209 36.8778 42.3496V39.5322H38.0155V38.6973H36.8778V37.3594H35.7987V38.6973H34.9686V39.5322H35.7987V42.6035C35.7987 43.624 36.2772 44.0342 37.4442 44.0342ZM39.5626 37.75C39.9239 37.75 40.2267 37.4521 40.2267 37.0908C40.2267 36.7246 39.9239 36.4268 39.5626 36.4268C39.1964 36.4268 38.8986 36.7246 38.8986 37.0908C38.8986 37.4521 39.1964 37.75 39.5626 37.75ZM39.0304 44H40.0851V38.6973H39.0304V44ZM41.388 44H42.4476V40.8896C42.4476 40.0352 42.931 39.5029 43.7074 39.5029C44.4837 39.5029 44.85 39.9375 44.85 40.8164V44H45.9046V40.5674C45.9046 39.3027 45.2504 38.5947 44.0638 38.5947C43.2923 38.5947 42.7845 38.9365 42.5257 39.5029H42.4476V38.6973H41.388V44ZM49.3854 45.8701C50.8893 45.8701 51.8414 45.0986 51.8414 43.8926V38.6973H50.7867V39.5664H50.7232C50.4156 38.9707 49.8395 38.6045 49.0973 38.6045C47.7203 38.6045 46.8756 39.6738 46.8756 41.1875V41.1973C46.8756 42.6914 47.7154 43.7412 49.0777 43.7412C49.8053 43.7412 50.3912 43.4189 50.7135 42.8428H50.7916V43.8877C50.7916 44.6104 50.274 45.0205 49.4 45.0205C48.6822 45.0205 48.2525 44.7617 48.1646 44.3955L48.1598 44.3857H47.0904L47.0807 44.3955C47.2076 45.2793 48.0377 45.8701 49.3854 45.8701ZM49.3707 42.8672C48.4674 42.8672 47.9596 42.1787 47.9596 41.1924V41.1826C47.9596 40.1963 48.4674 39.5029 49.3707 39.5029C50.2643 39.5029 50.8111 40.1963 50.8111 41.1826V41.1924C50.8111 42.1836 50.2691 42.8672 49.3707 42.8672ZM55.0536 44.1025C56.3133 44.1025 57.2508 43.4336 57.2508 42.4521V42.4424C57.2508 41.6758 56.7625 41.2412 55.742 41.002L54.9022 40.8115C54.3065 40.6699 54.0623 40.4648 54.0623 40.1328V40.123C54.0623 39.6982 54.4823 39.4102 55.0633 39.4102C55.659 39.4102 56.035 39.6885 56.1375 40.0596V40.0693H57.1483V40.0645C57.0555 39.2002 56.2791 38.5947 55.0682 38.5947C53.867 38.5947 53.0077 39.2588 53.0077 40.1816V40.1865C53.0077 40.9629 53.4715 41.417 54.4725 41.6465L55.3172 41.8418C55.9325 41.9834 56.1815 42.208 56.1815 42.54V42.5498C56.1815 42.9844 55.7274 43.2822 55.0731 43.2822C54.4432 43.2822 54.0575 43.0137 53.9256 42.6133L53.9207 42.6084H52.8612V42.6133C52.9637 43.502 53.7743 44.1025 55.0536 44.1025Z" fill="#C5C4FE"/>
<g clip-path="url(#clip0)">
<path d="M27.0908 19.9859C26.9967 20.3134 26.9724 20.6551 27.0193 20.9915C27.0663 21.3278 27.1835 21.652 27.3641 21.9453L28.6395 24.0289C29.0031 24.6212 29.6009 25.0533 30.3018 25.2306C31.0027 25.4078 31.7495 25.3157 32.3785 24.9744L32.9376 24.6664C33.5711 25.105 34.253 25.4778 34.9714 25.7783V26.3923C34.9714 27.8281 36.214 29 37.7214 29H40.2726C41.7805 29 43.0231 27.8281 43.0231 26.3919V25.7778C43.7413 25.4772 44.423 25.1042 45.0563 24.6655L45.618 24.9734C46.2467 25.3151 46.9934 25.4075 47.6943 25.2303C48.3951 25.0531 48.9928 24.6209 49.356 24.0284L50.6308 21.9448C50.9928 21.3515 51.0905 20.647 50.9025 19.9858C50.7145 19.3247 50.2561 18.7608 49.6279 18.418L49.0633 18.1105C49.1541 17.3725 49.1541 16.6271 49.0633 15.8891L49.6279 15.5816C50.256 15.2386 50.7143 14.6747 50.9021 14.0135C51.09 13.3523 50.9921 12.6479 50.6299 12.0547L49.3545 9.97109C48.991 9.37871 48.3932 8.94649 47.6923 8.76924C46.9913 8.592 46.2444 8.6842 45.6155 9.02562L45.0568 9.33359C44.4234 8.89495 43.7415 8.52216 43.0231 8.22172V7.60812C43.0231 6.17188 41.7805 5 40.2726 5H37.7214C36.214 5 34.9714 6.17188 34.9714 7.60812V8.22219C34.2532 8.52281 33.5714 8.89576 32.9381 9.33453L32.376 9.02656C32.065 8.85696 31.7215 8.74685 31.3653 8.70253C31.0091 8.65822 30.6472 8.68056 30.3001 8.76828C29.9531 8.85601 29.6278 9.00739 29.3429 9.21378C29.0579 9.42017 28.8189 9.67751 28.6395 9.97109L27.3641 12.0547C27.0019 12.6479 26.904 13.3525 27.0918 14.0138C27.2796 14.675 27.7379 15.239 28.3661 15.582L28.9307 15.8895C28.8399 16.6275 28.8399 17.3729 28.9307 18.1109L28.3661 18.4184C28.0542 18.5872 27.7809 18.8127 27.562 19.0817C27.3431 19.3508 27.1829 19.6581 27.0908 19.9859V19.9859ZM29.2881 19.9245L30.9585 19.0156L30.8422 18.4128C30.6622 17.4791 30.6622 16.5223 30.8422 15.5886L30.9585 14.9844L29.2886 14.075C29.0835 13.9631 28.934 13.779 28.8727 13.5631C28.8113 13.3473 28.8433 13.1174 28.9615 12.9237L30.2374 10.8406C30.3559 10.647 30.5511 10.5056 30.7801 10.4476C31.009 10.3896 31.2531 10.4197 31.4585 10.5312L33.1325 11.443L33.6295 11.045C34.3914 10.4296 35.2663 9.95073 36.211 9.63219L36.8104 9.42641V7.60812C36.8104 7.13937 37.2388 6.73438 37.7214 6.73438H40.2726C40.7557 6.73438 41.1841 7.13703 41.1841 7.60812V9.42641L41.786 9.63266C42.7315 9.95135 43.6073 10.4301 44.3705 11.0455L44.863 11.443L46.5379 10.5312C46.7432 10.42 46.9867 10.3901 47.2153 10.4479C47.4439 10.5057 47.6389 10.6466 47.7576 10.8397L49.0329 12.9233C49.1512 13.1169 49.1831 13.3469 49.1218 13.5627C49.0605 13.7785 48.9109 13.9626 48.7059 14.0745L47.0359 14.9844L47.1522 15.5872C47.3323 16.5209 47.3323 17.4777 47.1522 18.4114L47.0359 19.0156L48.7059 19.925C48.9109 20.0369 49.0605 20.221 49.1218 20.4369C49.1831 20.6527 49.1512 20.8826 49.0329 21.0762L47.7571 23.1594C47.6386 23.353 47.4434 23.4944 47.2144 23.5524C46.9854 23.6104 46.7414 23.5803 46.536 23.4688L44.862 22.557L44.365 22.955C43.603 23.5705 42.7281 24.0493 41.7835 24.3678L41.1841 24.5736V26.3919C41.1841 26.8606 40.7557 27.2656 40.2726 27.2656H37.7214C37.2383 27.2656 36.8104 26.863 36.8104 26.3919V24.5736L36.2085 24.3673C35.263 24.0486 34.3872 23.5699 33.624 22.9545L33.1315 22.557L31.4565 23.4688C31.2513 23.5801 31.0076 23.6102 30.7789 23.5523C30.5502 23.4945 30.3551 23.3536 30.2364 23.1603L28.961 21.0758C28.8427 20.8821 28.8107 20.652 28.8721 20.436C28.9335 20.2201 29.0833 20.0359 29.2886 19.9241L29.2881 19.9245Z" fill="#C5C4FE"/>
<path d="M38.9961 22C39.985 22 40.9517 21.7068 41.7739 21.1573C42.5962 20.6079 43.2371 19.827 43.6155 18.9134C43.9939 17.9998 44.0929 16.9945 43.9 16.0245C43.7071 15.0546 43.2309 14.1637 42.5316 13.4645C41.8324 12.7652 40.9414 12.289 39.9715 12.0961C39.0016 11.9031 37.9963 12.0022 37.0827 12.3806C36.169 12.759 35.3882 13.3999 34.8387 14.2222C34.2893 15.0444 33.9961 16.0111 33.9961 17C33.9975 18.3256 34.5248 19.5966 35.4621 20.5339C36.3995 21.4713 37.6705 21.9986 38.9961 22V22ZM38.9961 13.6795C39.6529 13.6795 40.295 13.8743 40.8412 14.2392C41.3873 14.6041 41.813 15.1228 42.0643 15.7297C42.3156 16.3365 42.3814 17.0043 42.2532 17.6485C42.125 18.2927 41.8087 18.8845 41.3442 19.3489C40.8797 19.8133 40.2879 20.1296 39.6437 20.2577C38.9995 20.3857 38.3317 20.3199 37.7249 20.0685C37.1181 19.8171 36.5995 19.3913 36.2346 18.8452C35.8697 18.299 35.675 17.6568 35.6751 17C35.6761 16.1195 36.0263 15.2754 36.6489 14.6528C37.2715 14.0302 38.1156 13.68 38.9961 13.679V13.6795Z" fill="#C5C4FE"/>
</g>
<defs>
<clipPath id="clip0">
<rect width="24" height="24" fill="white" transform="translate(26.9961 5)"/>
</clipPath>
</defs>
</svg>
