<svg width="77" height="49" viewBox="0 0 77 49" fill="none" xmlns="http://www.w3.org/2000/svg">
<path d="M20.0266 44H22.9221C24.4261 44 25.3294 43.248 25.3294 42.0127V42.0029C25.3294 41.085 24.6946 40.4111 23.7425 40.3086V40.2256C24.4358 40.1084 24.9778 39.4492 24.9778 38.7168V38.707C24.9778 37.6279 24.1819 36.9541 22.8587 36.9541H20.0266V44ZM22.6048 37.8477C23.4153 37.8477 23.8889 38.2334 23.8889 38.8975V38.9072C23.8889 39.5908 23.386 39.9521 22.4192 39.9521H21.1204V37.8477H22.6048ZM22.6389 40.7871C23.6692 40.7871 24.2112 41.1777 24.2112 41.9346V41.9443C24.2112 42.7012 23.6887 43.1064 22.7024 43.1064H21.1204V40.7871H22.6389ZM27.8286 44.0879C28.5318 44.0879 29.0884 43.7852 29.4009 43.248H29.4839V44H30.5337V40.3721C30.5337 39.2588 29.7818 38.5947 28.4487 38.5947C27.2427 38.5947 26.4077 39.1758 26.2808 40.0449L26.2759 40.0791H27.2964L27.3013 40.0596C27.4282 39.6836 27.814 39.4688 28.3999 39.4688C29.1177 39.4688 29.4839 39.791 29.4839 40.3721V40.8408L28.0484 40.9238C26.7837 41.002 26.0708 41.5537 26.0708 42.501V42.5107C26.0708 43.4727 26.8179 44.0879 27.8286 44.0879ZM27.1255 42.4668V42.457C27.1255 41.9785 27.4575 41.7148 28.19 41.6709L29.4839 41.5879V42.042C29.4839 42.7256 28.9029 43.2432 28.1118 43.2432C27.5405 43.2432 27.1255 42.9551 27.1255 42.4668ZM34.0193 44.1025C35.3328 44.1025 36.0896 43.3945 36.28 42.3643L36.2898 42.3203H35.2742L35.2644 42.3447C35.0935 42.916 34.6834 43.2188 34.0193 43.2188C33.1453 43.2188 32.6033 42.5059 32.6033 41.334V41.3242C32.6033 40.1816 33.1355 39.4785 34.0193 39.4785C34.7224 39.4785 35.1521 39.8691 35.2693 40.3916L35.2742 40.4062L36.2898 40.4014V40.377C36.1433 39.3467 35.3474 38.5947 34.0144 38.5947C32.4666 38.5947 31.5242 39.6445 31.5242 41.3242V41.334C31.5242 43.0479 32.4714 44.1025 34.0193 44.1025ZM37.2998 44H38.3594V42.0713L38.8135 41.6172L40.6396 44H41.9287L39.5703 40.9336L41.7822 38.6973H40.542L38.4375 40.9336H38.3594V36.6172H37.2998V44ZM48.1186 44.1709C49.8911 44.1709 50.9702 43.1211 50.9702 41.5732V36.9541H49.8764V41.4902C49.8764 42.5107 49.2417 43.2041 48.1186 43.2041C46.9956 43.2041 46.3559 42.5107 46.3559 41.4902V36.9541H45.2622V41.5732C45.2622 43.1211 46.3511 44.1709 48.1186 44.1709ZM52.3708 45.7676H53.4304V43.1602H53.5085C53.7917 43.7314 54.4118 44.0879 55.1394 44.0879C56.487 44.0879 57.3366 43.0332 57.3366 41.3535V41.3438C57.3366 39.6738 56.4773 38.6045 55.1394 38.6045C54.3972 38.6045 53.8161 38.9512 53.5085 39.5322H53.4304V38.6973H52.3708V45.7676ZM54.8415 43.1846C53.9577 43.1846 53.4109 42.4863 53.4109 41.3535V41.3438C53.4109 40.2109 53.9577 39.5127 54.8415 39.5127C55.7253 39.5127 56.2575 40.2012 56.2575 41.3438V41.3535C56.2575 42.4912 55.7253 43.1846 54.8415 43.1846Z" fill="#6465F9"/>
<g clip-path="url(#clip0)">
<path fill-rule="evenodd" clip-rule="evenodd" d="M36.0613 5.11512C37.8127 4.79391 39.6208 5.15067 41.1189 6.11308C42.3562 6.90795 43.3057 8.06685 43.8444 9.4189C44.4409 9.36415 45.0438 9.3924 45.6354 9.50408C46.533 9.6735 47.3845 10.0311 48.134 10.5534C48.8834 11.0756 49.5137 11.7506 49.9835 12.5341C50.4532 13.3175 50.7517 14.1915 50.8594 15.0986C50.967 16.0057 50.8813 16.9253 50.6078 17.7968C50.4883 18.1779 50.3158 18.6948 50.1005 19.2003C49.8944 19.6844 49.6118 20.2495 49.2439 20.6639C49.1621 20.756 49.0795 20.862 48.9892 20.9778L48.9892 20.9778C48.6849 21.3681 48.2934 21.8702 47.5534 22.3312C47.1473 22.6237 46.643 22.9025 46.1304 23.1126C45.6179 23.3226 45.0113 23.4996 44.44 23.5H44.4393H39.4992V28C39.4992 28.5523 39.0484 29 38.4961 29C37.9438 29 37.493 28.5523 37.493 28V23.5H32.4078C30.0145 23.5 28.7339 21.958 28.1681 21.0619C27.3605 19.9501 27.2206 18.7712 27.1067 17.8121L27.1067 17.812C27.0984 17.7423 27.0903 17.6737 27.0821 17.6063C26.9227 16.3056 27.2437 14.9915 27.9849 13.9108C28.5666 13.0627 29.3756 12.4042 30.3112 12.0055C30.3133 10.5138 30.7914 9.05346 31.6871 7.84288C32.7462 6.41147 34.3099 5.43633 36.0613 5.11512ZM39.4992 21.5V18.1665H42.9961L38.4957 11.9083L33.9961 18.1665H37.493V21.5H32.4078C31.0074 21.5 30.2538 20.6276 29.8449 19.9712C29.8309 19.9488 29.816 19.9269 29.8003 19.9056C29.2943 19.221 29.2086 18.5198 29.0787 17.4573L29.0672 17.3631C28.9671 16.5461 29.1687 15.7208 29.6343 15.0421C29.9109 14.6387 30.2694 14.3036 30.6824 14.056C30.7679 14.2874 30.8768 14.5326 31.0133 14.7507C31.3063 15.2188 31.9234 15.3607 32.3915 15.0677C32.8596 14.7746 33.0016 14.1576 32.7085 13.6894C32.6182 13.5452 32.5213 13.2846 32.4423 12.9955C32.4061 12.8632 32.3789 12.7447 32.3608 12.6599C32.3519 12.6177 32.3454 12.5847 32.3413 12.5633L32.341 12.5616C32.2037 11.3075 32.544 10.0473 33.2949 9.03246C34.052 8.00911 35.17 7.31195 36.4221 7.08231C37.6742 6.85267 38.9668 7.10772 40.0379 7.79578C40.8301 8.30473 41.4573 9.02242 41.8563 9.86111L41.4422 9.97381C40.9093 10.1189 40.5949 10.6684 40.74 11.2013C40.885 11.7342 41.4346 12.0487 41.9675 11.9036L43.4069 11.5118C44.0162 11.3677 44.6491 11.3532 45.2644 11.4694C45.8845 11.5864 46.4728 11.8335 46.9905 12.1942C47.5082 12.555 47.9437 13.0214 48.2682 13.5626C48.5927 14.1038 48.7989 14.7076 48.8733 15.3342C48.9476 15.9608 48.8884 16.5961 48.6995 17.1982C48.5879 17.5541 48.438 17.9996 48.2604 18.4168C48.0737 18.8553 47.893 19.173 47.7483 19.3361C47.5293 19.5827 47.3867 19.7661 47.2706 19.9155C47.0347 20.2187 46.9083 20.3813 46.4741 20.6471C46.4506 20.6614 46.4277 20.6768 46.4054 20.6931C46.134 20.8918 45.7597 21.103 45.3719 21.262C44.9698 21.4268 44.6394 21.4998 44.4386 21.5H39.4992Z" fill="#6465F9"/>
</g>
<defs>
<clipPath id="clip0">
<rect width="24" height="24" fill="white" transform="translate(26.9961 5)"/>
</clipPath>
</defs>
</svg>
