<svg width="55" height="24" viewBox="0 0 55 24" fill="none" xmlns="http://www.w3.org/2000/svg">
<path d="M10.5551 0.599998H0.859125V23H6.04313V16.824H10.5551C16.5391 16.824 20.2831 13.72 20.2831 8.728C20.2831 3.704 16.5391 0.599998 10.5551 0.599998ZM10.2671 12.6H6.04313V4.824H10.2671C13.4351 4.824 15.0351 6.264 15.0351 8.728C15.0351 11.16 13.4351 12.6 10.2671 12.6ZM28.4001 8.056V5.784H23.6321V23H28.6241V14.872C28.6241 11.576 30.4481 10.072 33.2001 10.072C33.5841 10.072 33.9041 10.104 34.3201 10.136V5.528C31.6641 5.528 29.6161 6.392 28.4001 8.056ZM45.3241 23.256C50.7961 23.256 54.7641 19.576 54.7641 14.392C54.7641 9.208 50.7961 5.528 45.3241 5.528C39.8521 5.528 35.8521 9.208 35.8521 14.392C35.8521 19.576 39.8521 23.256 45.3241 23.256ZM45.3241 19.16C42.8281 19.16 40.9081 17.368 40.9081 14.392C40.9081 11.416 42.8281 9.624 45.3241 9.624C47.8201 9.624 49.7081 11.416 49.7081 14.392C49.7081 17.368 47.8201 19.16 45.3241 19.16Z" fill="black"/>
<path d="M10.5551 0.599998H0.859125V23H6.04313V16.824H10.5551C16.5391 16.824 20.2831 13.72 20.2831 8.728C20.2831 3.704 16.5391 0.599998 10.5551 0.599998ZM10.2671 12.6H6.04313V4.824H10.2671C13.4351 4.824 15.0351 6.264 15.0351 8.728C15.0351 11.16 13.4351 12.6 10.2671 12.6ZM28.4001 8.056V5.784H23.6321V23H28.6241V14.872C28.6241 11.576 30.4481 10.072 33.2001 10.072C33.5841 10.072 33.9041 10.104 34.3201 10.136V5.528C31.6641 5.528 29.6161 6.392 28.4001 8.056ZM45.3241 23.256C50.7961 23.256 54.7641 19.576 54.7641 14.392C54.7641 9.208 50.7961 5.528 45.3241 5.528C39.8521 5.528 35.8521 9.208 35.8521 14.392C35.8521 19.576 39.8521 23.256 45.3241 23.256ZM45.3241 19.16C42.8281 19.16 40.9081 17.368 40.9081 14.392C40.9081 11.416 42.8281 9.624 45.3241 9.624C47.8201 9.624 49.7081 11.416 49.7081 14.392C49.7081 17.368 47.8201 19.16 45.3241 19.16Z" fill="#4D4AF9"/>
<path d="M10.5551 0.599998H0.859125V23H6.04313V16.824H10.5551C16.5391 16.824 20.2831 13.72 20.2831 8.728C20.2831 3.704 16.5391 0.599998 10.5551 0.599998ZM10.2671 12.6H6.04313V4.824H10.2671C13.4351 4.824 15.0351 6.264 15.0351 8.728C15.0351 11.16 13.4351 12.6 10.2671 12.6ZM28.4001 8.056V5.784H23.6321V23H28.6241V14.872C28.6241 11.576 30.4481 10.072 33.2001 10.072C33.5841 10.072 33.9041 10.104 34.3201 10.136V5.528C31.6641 5.528 29.6161 6.392 28.4001 8.056ZM45.3241 23.256C50.7961 23.256 54.7641 19.576 54.7641 14.392C54.7641 9.208 50.7961 5.528 45.3241 5.528C39.8521 5.528 35.8521 9.208 35.8521 14.392C35.8521 19.576 39.8521 23.256 45.3241 23.256ZM45.3241 19.16C42.8281 19.16 40.9081 17.368 40.9081 14.392C40.9081 11.416 42.8281 9.624 45.3241 9.624C47.8201 9.624 49.7081 11.416 49.7081 14.392C49.7081 17.368 47.8201 19.16 45.3241 19.16Z" fill="url(#paint0_linear)"/>
<defs>
<linearGradient id="paint0_linear" x1="59.104" y1="84.2768" x2="125.216" y2="-2.07849" gradientUnits="userSpaceOnUse">
<stop offset="0.0354036" stop-color="#56F3C4"/>
<stop offset="1" stop-color="white" stop-opacity="0"/>
</linearGradient>
</defs>
</svg>
